<?xml version="1.0" encoding="utf-8"?>
<!-- Generator: Adobe Illustrator 16.0.0, SVG Export Plug-In . SVG Version: 6.00 Build 0)  -->
<!DOCTYPE svg PUBLIC "-//W3C//DTD SVG 1.1//EN" "http://www.w3.org/Graphics/SVG/1.1/DTD/svg11.dtd">
<svg version="1.1" id="Layer_1" xmlns="http://www.w3.org/2000/svg" xmlns:xlink="http://www.w3.org/1999/xlink" x="0px" y="0px"
	 width="300px" height="299.7px" viewBox="100 100.1 300 299.7" style="enable-background:new 100 100.1 300 299.7;"
	 xml:space="preserve">
<style type="text/css">
<![CDATA[
	.st0{fill:#00A6C4;}
]]>
</style>
<g>
	<circle class="st0" cx="236.8" cy="399.4" r="0.5"/>
	<circle class="st0" cx="222.6" cy="394.9" r="1"/>
	<circle class="st0" cx="208.9" cy="389.1" r="1.5"/>
	<circle class="st0" cx="196" cy="381.8" r="2"/>
	<circle class="st0" cx="183.9" cy="373.2" r="2.6"/>
	<circle class="st0" cx="172.7" cy="363.3" r="3.1"/>
	<circle class="st0" cx="162.7" cy="352.4" r="3.6"/>
	<circle class="st0" cx="153.9" cy="340.4" r="4.1"/>
	<circle class="st0" cx="146.6" cy="327.4" r="4.6"/>
	<circle class="st0" cx="141.2" cy="313.6" r="5.1"/>
	<circle class="st0" cx="137.6" cy="299.2" r="5.6"/>
	<circle class="st0" cx="135.9" cy="284.4" r="6.1"/>
	<circle class="st0" cx="136.2" cy="269.5" r="6.7"/>
	<circle class="st0" cx="138.4" cy="254.8" r="7.2"/>
	<circle class="st0" cx="346.4" cy="365.1" r="0.5"/>
	<path class="st0" d="M333.2,371.1c-0.5,0-0.9,0.4-0.9,0.9c0,0.5,0.4,0.9,0.9,0.9c0.5,0,0.9-0.4,0.9-0.9
		C334.1,371.5,333.7,371.1,333.2,371.1z"/>
	<path class="st0" d="M319.4,376.1c-0.7,0-1.4,0.6-1.4,1.4s0.6,1.4,1.4,1.4c0.8,0,1.4-0.6,1.4-1.4
		C320.7,376.7,320.1,376.1,319.4,376.1z"/>
	<circle class="st0" cx="305.1" cy="381.5" r="1.8"/>
	<path class="st0" d="M290.4,381.7c-1.3,0-2.3,1-2.3,2.3c0,1.2,1,2.3,2.3,2.3c1.2,0,2.3-1,2.3-2.3
		C292.7,382.7,291.7,381.7,290.4,381.7z"/>
	<circle class="st0" cx="275.6" cy="384.9" r="2.7"/>
	<circle class="st0" cx="260.7" cy="384.2" r="3.2"/>
	<circle class="st0" cx="246" cy="382" r="3.6"/>
	<circle class="st0" cx="231.7" cy="377.9" r="4.1"/>
	<circle class="st0" cx="218.1" cy="372" r="4.5"/>
	<circle class="st0" cx="205.3" cy="364.4" r="5"/>
	<circle class="st0" cx="193.7" cy="355.1" r="5.4"/>
	<circle class="st0" cx="183.4" cy="344.4" r="5.9"/>
	<circle class="st0" cx="174.6" cy="332.5" r="6.3"/>
	<circle class="st0" cx="167.4" cy="319.5" r="6.8"/>
	<circle class="st0" cx="399.6" cy="263.3" r="0.4"/>
	<circle class="st0" cx="395.2" cy="277.5" r="0.8"/>
	<path class="st0" d="M389.3,290c-0.7,0-1.2,0.5-1.2,1.2s0.5,1.2,1.2,1.2c0.7,0,1.2-0.5,1.2-1.2S390,290,389.3,290z"/>
	<path class="st0" d="M382,302.5c-0.9,0-1.6,0.7-1.6,1.6s0.7,1.6,1.6,1.6c0.9,0,1.6-0.7,1.6-1.6C383.6,303.2,382.9,302.5,382,302.5z
		"/>
	<circle class="st0" cx="373.4" cy="316.3" r="2"/>
	<circle class="st0" cx="363.6" cy="327.4" r="2.4"/>
	<circle class="st0" cx="352.6" cy="337.5" r="2.8"/>
	<circle class="st0" cx="340.6" cy="346.3" r="3.2"/>
	<path class="st0" d="M327.6,349.9c-2,0-3.6,1.6-3.6,3.6c0,2,1.6,3.6,3.6,3.6c2,0,3.6-1.6,3.6-3.6
		C331.3,351.5,329.6,349.9,327.6,349.9z"/>
	<path class="st0" d="M313.8,354.9c-2.2,0-4.1,1.8-4.1,4.1s1.8,4.1,4.1,4.1c2.2,0,4.1-1.8,4.1-4.1
		C317.9,356.7,316,354.9,313.8,354.9z"/>
	<circle class="st0" cx="299.4" cy="362.6" r="4.5"/>
	<circle class="st0" cx="284.6" cy="364.2" r="4.9"/>
	<circle class="st0" cx="269.8" cy="364" r="5.3"/>
	<path class="st0" d="M260.7,361.8c0-3.1-2.5-5.7-5.7-5.7c-3.1,0-5.7,2.5-5.7,5.7c0,3.1,2.5,5.7,5.7,5.7
		C258.2,367.4,260.7,364.9,260.7,361.8z"/>
	<circle class="st0" cx="240.8" cy="357.7" r="6.1"/>
	<circle class="st0" cx="227.1" cy="351.7" r="6.5"/>
	<path class="st0" d="M365.3,154.2c0.2,0,0.4-0.2,0.4-0.4s-0.2-0.4-0.4-0.4c-0.2,0-0.4,0.2-0.4,0.4S365.1,154.2,365.3,154.2z"/>
	<path class="st0" d="M372.2,167.7c0.4,0,0.8-0.4,0.8-0.8c0-0.4-0.4-0.8-0.8-0.8c-0.4,0-0.8,0.4-0.8,0.8
		C371.4,167.4,371.8,167.7,372.2,167.7z"/>
	<path class="st0" d="M377.7,182c0.7,0,1.2-0.5,1.2-1.2c0-0.7-0.5-1.2-1.2-1.2c-0.7,0-1.2,0.5-1.2,1.2
		C376.5,181.4,377,182,377.7,182z"/>
	<path class="st0" d="M381.7,196.7c0.9,0,1.6-0.7,1.6-1.6c0-0.9-0.7-1.6-1.6-1.6c-0.9,0-1.6,0.7-1.6,1.6
		C380.1,196,380.8,196.7,381.7,196.7z"/>
	<circle class="st0" cx="384.2" cy="209.7" r="2"/>
	<circle class="st0" cx="385.1" cy="224.5" r="2.4"/>
	<path class="st0" d="M384.5,236.6c-1.6,0-2.8,1.3-2.8,2.8c0,1.6,1.3,2.8,2.8,2.8c1.6,0,2.8-1.3,2.8-2.8
		C387.3,237.8,386,236.6,384.5,236.6z"/>
	<path class="st0" d="M382.2,250.9c-1.8,0-3.2,1.5-3.2,3.2c0,1.8,1.4,3.2,3.2,3.2c1.8,0,3.2-1.4,3.2-3.2
		C385.5,252.3,384,250.9,382.2,250.9z"/>
	<circle class="st0" cx="378.2" cy="268.4" r="3.6"/>
	<circle class="st0" cx="372.3" cy="282" r="4.1"/>
	<circle class="st0" cx="364.6" cy="294.8" r="4.5"/>
	<path class="st0" d="M355.3,301.5c-2.7,0-4.9,2.2-4.9,4.9s2.2,4.9,4.9,4.9c2.7,0,4.9-2.2,4.9-4.9
		C360.2,303.7,358,301.5,355.3,301.5z"/>
	<circle class="st0" cx="344.6" cy="316.7" r="5.3"/>
	<circle class="st0" cx="332.7" cy="325.6" r="5.7"/>
	<circle class="st0" cx="319.7" cy="332.8" r="6.1"/>
	<path class="st0" d="M305.9,331.7c-3.6,0-6.5,2.9-6.5,6.5c0,3.6,2.9,6.5,6.5,6.5c3.6,0,6.5-2.9,6.5-6.5
		C312.3,334.6,309.4,331.7,305.9,331.7z"/>
	<path class="st0" d="M263.6,100.9c0.2,0,0.4-0.2,0.4-0.4c0-0.2-0.2-0.4-0.4-0.4c-0.2,0-0.4,0.2-0.4,0.4
		C263.2,100.8,263.3,100.9,263.6,100.9z"/>
	<circle class="st0" cx="277.8" cy="105" r="0.8"/>
	<path class="st0" d="M291.4,112.1c0.7,0,1.2-0.5,1.2-1.2c0-0.7-0.5-1.2-1.2-1.2c-0.7,0-1.2,0.5-1.2,1.2
		C290.2,111.5,290.7,112.1,291.4,112.1z"/>
	<path class="st0" d="M304.4,119.7c0.9,0,1.6-0.7,1.6-1.6c0-0.9-0.7-1.6-1.6-1.6c-0.9,0-1.6,0.7-1.6,1.6
		C302.8,119,303.5,119.7,304.4,119.7z"/>
	<path class="st0" d="M316.5,128.8c1.1,0,2-0.9,2-2c0-1.1-0.9-2-2-2c-1.1,0-2,0.9-2,2C314.5,127.9,315.4,128.8,316.5,128.8z"/>
	<circle class="st0" cx="327.6" cy="136.6" r="2.4"/>
	<path class="st0" d="M337.7,150.4c1.6,0,2.8-1.3,2.8-2.8c0-1.6-1.3-2.8-2.8-2.8c-1.6,0-2.8,1.3-2.8,2.8
		C334.8,149.1,336.1,150.4,337.7,150.4z"/>
	<path class="st0" d="M346.5,162.7c1.8,0,3.2-1.5,3.2-3.2c0-1.8-1.4-3.2-3.2-3.2c-1.8,0-3.2,1.4-3.2,3.2
		C343.3,161.3,344.7,162.7,346.5,162.7z"/>
	<circle class="st0" cx="353.7" cy="172.5" r="3.6"/>
	<path class="st0" d="M355.2,186.3c0,2.2,1.8,4.1,4.1,4.1c2.2,0,4.1-1.8,4.1-4.1c0-2.2-1.8-4.1-4.1-4.1
		C357,182.3,355.2,184.1,355.2,186.3z"/>
	<path class="st0" d="M358.3,200.7c0,2.5,2,4.5,4.5,4.5c2.5,0,4.5-2,4.5-4.5c0-2.5-2-4.5-4.5-4.5
		C360.3,196.3,358.3,198.3,358.3,200.7z"/>
	<path class="st0" d="M359.6,215.5c0,2.7,2.2,4.9,4.9,4.9c2.7,0,4.9-2.2,4.9-4.9c0-2.7-2.2-4.9-4.9-4.9
		C361.8,210.6,359.6,212.8,359.6,215.5z"/>
	<circle class="st0" cx="364.2" cy="230.4" r="5.3"/>
	<circle class="st0" cx="362" cy="245.1" r="5.7"/>
	<circle class="st0" cx="357.9" cy="259.4" r="6.1"/>
	<circle class="st0" cx="352" cy="273" r="6.5"/>
	<circle class="st0" cx="154" cy="134.8" r="0.4"/>
	<circle class="st0" cx="167.2" cy="127.9" r="0.8"/>
	<circle class="st0" cx="181" cy="122.4" r="1.2"/>
	<circle class="st0" cx="195.3" cy="118.4" r="1.6"/>
	<circle class="st0" cx="209.9" cy="115.9" r="2"/>
	<circle class="st0" cx="224.8" cy="115" r="2.4"/>
	<circle class="st0" cx="239.6" cy="115.7" r="2.8"/>
	<circle class="st0" cx="254.3" cy="117.9" r="3.2"/>
	<circle class="st0" cx="268.6" cy="121.9" r="3.6"/>
	<path class="st0" d="M282.3,131.9c2.2,0,4-1.8,4-4.1c0-2.2-1.8-4.1-4-4.1c-2.2,0-4.1,1.8-4.1,4.1
		C278.2,130.1,280,131.9,282.3,131.9z"/>
	<path class="st0" d="M290.6,135.5c0,2.5,2,4.5,4.5,4.5c2.5,0,4.5-2,4.5-4.5c0-2.5-2-4.5-4.5-4.5
		C292.6,131.1,290.6,133.1,290.6,135.5z"/>
	<path class="st0" d="M306.6,149.6c2.7,0,4.9-2.2,4.9-4.9s-2.2-4.9-4.9-4.9c-2.7,0-4.9,2.2-4.9,4.9S304,149.6,306.6,149.6z"/>
	<path class="st0" d="M317,160.8c2.9,0,5.3-2.4,5.3-5.3c0-2.9-2.4-5.3-5.3-5.3c-2.9,0-5.3,2.4-5.3,5.3
		C311.7,158.4,314,160.8,317,160.8z"/>
	<circle class="st0" cx="325.8" cy="167.4" r="5.7"/>
	<circle class="st0" cx="333" cy="180.4" r="6.1"/>
	<path class="st0" d="M331.9,194.3c0,3.6,2.9,6.5,6.5,6.5c3.6,0,6.5-2.9,6.5-6.5s-2.9-6.5-6.5-6.5
		C334.9,187.8,331.9,190.7,331.9,194.3z"/>
	<circle class="st0" cx="342" cy="208.7" r="6.9"/>
	<circle class="st0" cx="100.8" cy="236.6" r="0.8"/>
	<circle class="st0" cx="105.2" cy="222.4" r="1.5"/>
	<circle class="st0" cx="111.1" cy="208.7" r="2.3"/>
	<circle class="st0" cx="118.4" cy="195.8" r="3.1"/>
	<circle class="st0" cx="127" cy="183.6" r="3.8"/>
	<circle class="st0" cx="136.8" cy="172.5" r="4.6"/>
	<circle class="st0" cx="147.8" cy="162.4" r="5.4"/>
	<circle class="st0" cx="159.7" cy="153.6" r="6.1"/>
	<circle class="st0" cx="172.6" cy="146.3" r="6.9"/>
	<path class="st0" d="M186.4,148.3c3.8,0,7-2.8,7.5-6.5c1.5,2.2,4,3.6,6.9,3.6c3.2,0,6.1-1.8,7.5-4.5c1.7,2.2,4.3,3.7,7.3,3.7
		c2.7,0,5.1-1.2,6.8-3c1.8,2.5,4.7,4.2,8.1,4.2c2.1,0,4.1-0.7,5.7-1.8c0.4,0.6,0.8,1.1,1.3,1.6c-2.5,0.3-4.8,1.4-6.5,3
		c-1.9-1.7-4.4-2.8-7.2-2.8c-3.5,0-6.7,1.7-8.6,4.4c-1.7-1.3-3.8-2.1-6.2-2.1c-4,0-7.5,2.4-9.1,5.8c-1.5-1-3.3-1.6-5.3-1.6
		c-4.5,0-8.3,3.1-9.2,7.3c-1.3-0.8-2.9-1.3-4.6-1.3c-4.9,0-8.9,4-8.9,8.9c0,0,0,0,0,0c-1.2-0.7-2.6-1.1-4.1-1.1
		c-4.6,0-8.3,3.7-8.3,8.3c0,0.8,0.1,1.6,0.3,2.3c-1.2-0.7-2.5-1.1-4-1.1c-4.2,0-7.7,3.4-7.7,7.7c0,4.2,3.4,7.7,7.7,7.7
		s7.7-3.4,7.7-7.7c0-0.7-0.1-1.3-0.3-1.9c1.3,0.9,2.9,1.4,4.5,1.4c4.5,0,8.1-3.6,8.3-8c1.4,0.9,3,1.4,4.7,1.4c0.2,0,0.3,0,0.5,0
		c-1.9,1.7-3.1,4.1-3.3,6.7c-0.6-0.1-1.2-0.2-1.8-0.2c-5.4,0-9.7,4.4-9.7,9.7c0,0.4,0,0.8,0.1,1.1c-0.4,0-0.7-0.1-1.1-0.1
		c-5.1,0-9.2,4.1-9.2,9.2c0,1,0.2,2,0.5,2.9c-0.2,0-0.4,0-0.5,0c-4.8,0-8.7,3.9-8.7,8.7c0,1.7,0.5,3.2,1.3,4.5c-0.1,0-0.2,0-0.3,0
		c-4.5,0-8.2,3.7-8.2,8.2c0,2.4,1,4.5,2.6,6c-0.1,0-0.2,0-0.3,0c-4.2,0-7.7,3.4-7.7,7.7s3.4,7.7,7.7,7.7c4.2,0,7.7-3.4,7.7-7.7
		c0-2.1-0.9-4.1-2.3-5.5c0.2,0,0.4,0,0.5,0c2.4,0,4.5-1,6-2.6c0,0.1,0,0.2,0,0.3c0,2.1,0.7,4,1.9,5.6c-3.5,1.3-6,4.6-6,8.5
		c0,2.8,1.2,5.2,3.2,6.9c-3,1.4-5,4.3-5,7.8c0,3.3,1.9,6.2,4.6,7.6c-2.6,1.3-4.5,4.1-4.5,7.3c0,3.9,2.7,7.1,6.3,7.9
		c-2.5,1.3-4.2,3.8-4.2,6.8c0,4.2,3.4,7.7,7.7,7.7c0.5,0,0.9-0.1,1.4-0.1c-2.9,0.9-5.1,3.6-5.1,6.9c0,4,3.2,7.2,7.2,7.2
		c4,0,7.2-3.2,7.2-7.2s-3.2-7.2-7.2-7.2c-0.4,0-0.9,0.1-1.3,0.1c3.1-1,5.4-3.9,5.4-7.3c0-0.2,0-0.4-0.1-0.5c1.2,1.3,2.8,2.2,4.5,2.7
		c-1.3,1.5-2,3.4-2,5.5c0,4.7,3.8,8.5,8.5,8.5c0.1,0,0.1,0,0.2,0c-1,1.3-1.5,3-1.5,4.7c0,4.5,3.6,8.1,8.1,8.1c0.8,0,1.6-0.1,2.4-0.3
		c-0.8,1.2-1.3,2.7-1.3,4.3c0,4.3,3.4,7.7,7.7,7.7c1.8,0,3.5-0.7,4.8-1.7c-1.1,1.3-1.8,2.9-1.8,4.7c0,4,3.3,7.3,7.3,7.3
		c4,0,7.3-3.3,7.3-7.3c0-2-0.8-3.7-2-5c1,0,1.9-0.2,2.8-0.5c0,0,0,0.1,0,0.1c0,3.5,2,6.5,4.9,7.9c-0.4-0.1-0.9-0.1-1.3-0.1
		c-3.8,0-6.9,3.1-6.9,6.9c0,3.8,3.1,6.9,6.9,6.9c3.8,0,6.9-3.1,6.9-6.9c0-2.6-1.5-4.9-3.6-6c0.7,0.2,1.4,0.3,2.1,0.3
		c1.7,0,3.3-0.5,4.7-1.4c0.4,4.4,4,7.8,8.5,7.8c2.4,0,4.6-1,6.1-2.6c0.6,3.9,4,6.8,8,6.8c3.1,0,5.8-1.7,7.1-4.3
		c0.7,3.5,3.8,6.2,7.5,6.2c4,0,7.2-3,7.6-6.9c0.3,3.8,3.4,6.8,7.2,6.8c4,0,7.3-3.3,7.3-7.3c0-4-3.2-7.2-7.1-7.3
		c0.7-0.7,1.2-1.5,1.7-2.3c1.6,1.7,3.9,2.7,6.4,2.7c0.9,0,1.9-0.1,2.7-0.4c-1.8,1.2-3,3.3-3,5.7c0,3.8,3.1,6.9,6.9,6.9
		c3.8,0,6.9-3.1,6.9-6.9c0-3.8-3.1-6.9-6.9-6.9c-0.7,0-1.4,0.1-2,0.3c2-1.2,3.5-3.2,4.1-5.6c1.5,1.3,3.4,2,5.5,2
		c4.7,0,8.5-3.8,8.5-8.5c0-0.1,0-0.1,0-0.2c1.3,1,3,1.5,4.7,1.5c4.5,0,8.1-3.6,8.1-8.1c0-0.8-0.1-1.6-0.3-2.4
		c1.2,0.8,2.7,1.3,4.3,1.3c4.3,0,7.7-3.4,7.7-7.7c0-1.8-0.7-3.5-1.7-4.8c1.3,1.1,2.9,1.8,4.7,1.8c4,0,7.3-3.3,7.3-7.3
		c0-4-3.3-7.3-7.3-7.3c-2,0-3.7,0.8-5,2c0-1-0.2-1.9-0.5-2.8c0,0,0.1,0,0.1,0c3.5,0,6.5-2,7.9-4.9c-0.1,0.4-0.1,0.9-0.1,1.3
		c0,3.8,3.1,6.9,6.9,6.9c3.8,0,6.9-3.1,6.9-6.9c0-3.8-3.1-6.9-6.9-6.9c-2.6,0-4.9,1.5-6,3.6c0.2-0.7,0.3-1.4,0.3-2.1
		c0-1.7-0.5-3.3-1.4-4.7c4.4-0.4,7.8-4,7.8-8.5c0-2.4-1-4.6-2.6-6.1c3.9-0.6,6.8-4,6.8-8c0-3.1-1.7-5.8-4.3-7.1
		c3.5-0.7,6.2-3.8,6.2-7.5c0-4-3-7.2-6.9-7.6c3.8-0.3,6.8-3.4,6.8-7.2c0-4-3.3-7.3-7.3-7.3c-4,0-7.3,3.3-7.3,7.3
		c0,3.8,2.8,6.8,6.5,7.2c-4,0.3-7.2,3.6-7.2,7.6c0,2.9,1.6,5.4,4,6.7c-3.8,0.7-6.7,4-6.7,8c0,2.2,0.9,4.2,2.4,5.7
		c-4.2,0.6-7.4,4.1-7.4,8.4c0,1.6,0.4,3,1.2,4.3c-4.7,0.3-8.4,4.1-8.4,8.9c0,0.9,0.1,1.8,0.4,2.6c-0.1,0-0.3,0-0.4,0
		c-5.1,0-9.3,4.2-9.3,9.3c0,0.2,0,0.4,0,0.7c-0.5-0.1-1-0.1-1.5-0.1c-4.9,0-8.9,3.6-9.6,8.3c-0.8-0.2-1.7-0.4-2.7-0.4
		c-4.1,0-7.6,2.4-9.2,5.8c-2-1.6-4.6-2.3-7.3-1.8c-3,0.6-5.3,2.5-6.5,5.1c-1.9-2.1-4.8-3.2-7.8-2.8c-2.9,0.4-5.3,2.2-6.6,4.6
		c-1.6-2-4.1-3.3-6.9-3.3c-2.6,0-4.9,1.1-6.6,2.8c-1-2.3-3-4.1-5.6-4.9c-2.7-0.8-5.5-0.3-7.7,1.3c-0.6-2.6-2.3-4.9-4.8-6.1
		c-2.5-1.2-5.2-1.1-7.5-0.1c-0.1-2.5-1.2-5-3.4-6.7c-2.1-1.6-4.6-2.2-7-1.8c0.6-2.5,0.1-5.2-1.5-7.4c-1.7-2.3-4.4-3.5-7-3.6
		c1-2.4,1-5.2-0.3-7.7c-1.2-2.3-3.2-3.8-5.5-4.4c1.4-1.9,2.1-4.3,1.7-6.9c-0.4-2.8-2.1-5-4.4-6.3c2.2-1.7,3.5-4.3,3.5-7.2
		c0-2.6-1.2-5-3.1-6.6c2.2-1.1,4-3.2,4.7-5.8c0.7-2.6,0.1-5.2-1.4-7.3c2.3-0.5,4.4-2,5.7-4.2c1.4-2.4,1.5-5.1,0.7-7.5
		c2.6,0.1,5.2-0.9,7.1-3c1.9-2.1,2.6-4.7,2.2-7.3c2.4,0.6,5,0.2,7.2-1.3c2.3-1.6,3.6-4,3.8-6.5c2.3,1.2,5.1,1.4,7.6,0.3
		c2.4-1,4.1-2.9,4.9-5.2c1.8,1.6,4.3,2.5,6.9,2.3h0c2.9-0.3,5.3-1.9,6.7-4.1c1.5,2.1,3.9,3.6,6.6,3.8c2.7,0.2,5.1-0.8,6.9-2.5
		c0.9,2.3,2.9,4.3,5.5,5.2c2.7,0.9,5.5,0.4,7.7-1c0.5,2.5,2,4.9,4.5,6.2h0c2,1.1,4.3,1.3,6.4,0.8c0.2,0.3,0.5,0.7,0.8,1
		c0.1,1.9,0.9,3.8,2.2,5.3c0.1,0.1,0.1,0.1,0.2,0.2c4.5,4.8,15.1,16.3,13.1,31.8c-0.5,3.9,1.7,5.8,4.4,2.8
		c16.8-18.1,14.2-40.3,13.8-42.9c-0.1-1.7-0.5-3.3-1.1-4.8c0.2-0.9,0.3-1.9,0.3-2.9c0-4.7-2.2-8.8-5.7-11.4c0.2-0.8,0.3-1.7,0.3-2.6
		c0-5.8-3.6-10.7-8.6-12.8c-0.1-6.5-4.9-11.8-11.1-12.7c-1.1-5.8-6.2-10.3-12.3-10.3c-0.2,0-0.4,0-0.7,0c-1.5-4.8-6-8.2-11.3-8.2
		c-1,0-2,0.1-3,0.4c-1.8-3.9-5.7-6.6-10.2-6.6c-1.8,0-3.4,0.4-4.9,1.1c-1.8-3.1-5.2-5.2-9.2-5.2c-2.5,0-4.8,0.9-6.6,2.3
		c-1.8-2.5-4.7-4.1-8-4.1c-3.1,0-5.9,1.5-7.7,3.7c-1.7-2.1-4.2-3.4-7.1-3.4c-3.7,0-6.9,2.2-8.3,5.4c-1.5-1.8-3.8-3-6.4-3
		c-4.3,0-7.9,3.3-8.3,7.5c-1.4-1.8-3.6-3-6.1-3c-4.2,0-7.6,3.4-7.6,7.6C178.8,144.9,182.2,148.3,186.4,148.3z"/>
	<circle class="st0" cx="135.1" cy="346.1" r="0.6"/>
	<circle class="st0" cx="128.2" cy="333" r="1.2"/>
	<circle class="st0" cx="122.7" cy="319.2" r="1.8"/>
	<circle class="st0" cx="118.6" cy="304.8" r="2.4"/>
	<circle class="st0" cx="116.2" cy="290.2" r="3"/>
	<circle class="st0" cx="115.2" cy="275.3" r="3.5"/>
	<circle class="st0" cx="115.9" cy="260.5" r="4.1"/>
	<circle class="st0" cx="118.1" cy="245.8" r="4.7"/>
	<circle class="st0" cx="122.2" cy="231.5" r="5.3"/>
	<circle class="st0" cx="128.1" cy="217.9" r="5.9"/>
	<circle class="st0" cx="135.8" cy="205.1" r="6.5"/>
	<circle class="st0" cx="145" cy="193.5" r="7.1"/>
</g>
</svg>
