<?xml version="1.0" encoding="utf-8"?>
<!-- Generator: Adobe Illustrator 22.0.1, SVG Export Plug-In . SVG Version: 6.00 Build 0)  -->
<svg version="1.1" id="Layer_1" xmlns="http://www.w3.org/2000/svg" xmlns:xlink="http://www.w3.org/1999/xlink" x="0px" y="0px"
	 viewBox="0 0 1055 680" style="enable-background:new 0 0 1055 680;" xml:space="preserve">
<style type="text/css">
	.st0{fill:#102D3D;}
	.st1{fill:#D72027;}
</style>
<g id="XMLID_1096_">
	<g id="XMLID_1097_">
		<path id="XMLID_1098_" class="st0" d="M445.7,306.4c-15.9,0-26.7-7.1-30.4-19.9l-2.2-7.8L393.7,290l1.6,4.8
			c6.6,20.4,25.9,33,50.4,33c27.6,0,46.2-15.9,46.2-39.6c0-26.1-23.7-34-44.6-40.9c-18-5.9-25.3-9.3-25.3-18.8
			c0-10.4,8.3-17.1,21.1-17.1c12.2,0,20.7,5.8,25.4,17.1l2.7,6.6l18.9-10.5l-2.2-5.2c-7.7-18.4-24.5-29.4-44.9-29.4
			c-25,0-43.1,16.4-43.1,38.9c0,25.6,21.5,32.6,42.4,39.3l0.6,0.2c21,6.7,27,11.1,27,20C469.9,299.8,461.1,306.4,445.7,306.4z"/>
		<polygon id="XMLID_1099_" class="st0" points="534.1,234.4 569.2,292.6 577.9,292.6 612.9,234.4 612.9,326 634.8,326 634.8,191.9 
			623.8,191.9 613.3,191.9 573.4,257.8 533.6,191.9 512.3,191.9 512.3,326 534.1,326 		"/>
		<path id="XMLID_1100_" class="st0" d="M685.1,295.1h52.2l11.8,30.9h23.3l-51.9-134.1h-18.4L650,326h23.3L685.1,295.1z
			 M693.4,273.8l17.9-46.7l17.9,46.7H693.4z"/>
		<path id="XMLID_1103_" class="st0" d="M858.7,271.9c14.3-7,23.8-21.6,23.8-37.8c0-23.3-18.9-42.2-42.2-42.2H786V326h21.8v-49.8
			h28.4l29.2,49.8h25.3L858.7,271.9z M807.8,213.2h32.4c11.3,0,20.4,9.4,20.4,20.9c0,11.4-9.2,20.8-20.4,20.8h-32.4V213.2z"/>
		<polygon id="XMLID_1106_" class="st0" points="889.8,191.9 889.8,213.2 928,213.2 928,326 950,326 950,213.2 988.2,213.2 
			988.2,191.9 		"/>
	</g>
	<g id="XMLID_1107_">
		<polygon id="XMLID_1108_" class="st0" points="488.8,353.6 452.4,452.7 416.1,353.6 392.2,353.6 443,489.9 452.4,489.9 
			452.4,489.9 461.8,489.9 512.6,353.6 		"/>
		<path id="XMLID_1109_" class="st0" d="M545.8,353.6l-52.9,136.3h23.7l12-31.4h53.1l12,31.4h23.7l-52.8-136.3H545.8z M536.9,436.9
			l18.2-47.4l18.2,47.4H536.9z"/>
		<polygon id="XMLID_1112_" class="st0" points="657.8,353.6 635.6,353.6 635.6,489.9 716,489.9 716,468.3 657.8,468.3 		"/>
		<path id="XMLID_1113_" class="st0" d="M793.5,351.7c-39.3,0-70.1,30.8-70.1,70.1c0,39.3,30.8,70.1,70.1,70.1
			c39.3,0,70.1-30.8,70.1-70.1C863.6,382.5,832.8,351.7,793.5,351.7z M793.5,470c-26.9,0-47.9-21.2-47.9-48.3s21-48.3,47.9-48.3
			c26.9,0,47.9,21.2,47.9,48.3S820.4,470,793.5,470z"/>
		<path id="XMLID_1116_" class="st0" d="M980.3,396.6c0-23.7-19.3-42.9-42.9-42.9h-55.1v136.3h22.2v-50.6h28.9l29.6,50.6h25.7
			l-32.5-55C970.7,427.8,980.3,413,980.3,396.6z M904.5,375.3h32.9c11.4,0,20.7,9.5,20.7,21.3c0,11.6-9.3,21.1-20.7,21.1h-32.9
			V375.3z"/>
	</g>
	<g id="XMLID_1119_">
		<path id="XMLID_1120_" class="st1" d="M379.4,188.9l-19.8,50.2c-0.3,0.6-0.8,1-1.4,1h-56.7c-0.5,0-1-0.3-1.3-0.7
			c-0.3-0.4-0.3-1-0.1-1.5l0.1-0.1l20.5-49.9c0.2-0.6,0.8-1,1.4-1H378c0.5,0,1,0.3,1.3,0.7C379.5,188,379.5,188.5,379.4,188.9z"/>
		<path id="XMLID_1121_" class="st1" d="M337.6,287.8l-172.9-0.3l-19.9-47.5h101.8c0.6,0,1.2-0.4,1.4-1l19.8-50.2
			c0.2-0.4,0.1-1-0.2-1.4c-0.3-0.4-0.8-0.7-1.3-0.7H67.8c-0.5,0-1,0.3-1.3,0.7c-0.3,0.4-0.3,0.9-0.2,1.4l59.2,150.1
			c0.3,0.6,0.8,0.9,1.4,0.9h133.1l-37.1,97.1l-19.2-49.3c-0.2-0.6-0.8-1-1.4-1l-55.8-0.1c-0.5,0-1,0.3-1.2,0.7
			c-0.3,0.4-0.3,0.9-0.2,1.4L184.8,489c0.2,0.6,0.8,1,1.4,1h73.3c0.6,0,1.2-0.4,1.4-0.9L339,289.8c0.2-0.5,0.1-1-0.2-1.4
			C338.6,288.1,338.1,287.8,337.6,287.8z"/>
	</g>
</g>
</svg>
