<?xml version="1.0" encoding="utf-8"?>
<!-- Generator: Adobe Illustrator 16.0.0, SVG Export Plug-In . SVG Version: 6.00 Build 0)  -->
<!DOCTYPE svg PUBLIC "-//W3C//DTD SVG 1.1//EN" "http://www.w3.org/Graphics/SVG/1.1/DTD/svg11.dtd">
<svg version="1.1" id="Layer_1" xmlns="http://www.w3.org/2000/svg" xmlns:xlink="http://www.w3.org/1999/xlink" x="0px" y="0px"
	 width="1055px" height="680px" viewBox="0 0 1055 680" enable-background="new 0 0 1055 680" xml:space="preserve">
<path fill="#1c313f" d="M234.993,531.182v56.416c-15.535,11.813-38.493,19.906-59.488,19.906c-45.267,0-80.473-33.898-80.473-77.637
	c0-43.732,35.651-77.196,82.006-77.196c21.869,0,43.738,8.312,58.834,21.44l-14.656,19.017
	c-11.804-10.93-28.213-17.488-44.178-17.488c-31.27,0-55.767,23.832-55.767,54.228c0,30.616,24.716,54.459,55.986,54.459
	c11.375,0,24.277-3.937,35.217-10.501v-42.644H234.993z M388.727,606.415L307.154,496.63v109.785h-25.795v-153.09h25.366l82.001,110
	v-110h25.376v153.09H388.727z M613.971,529.867c0,43.738-35.42,77.637-81.127,77.637c-45.707,0-81.132-33.898-81.132-77.637
	c0-43.952,35.426-77.196,81.132-77.196C578.551,452.671,613.971,486.135,613.971,529.867z M477.951,529.867
	c0,30.406,25.151,54.459,55.112,54.459c29.962,0,54.454-24.053,54.454-54.459c0-30.396-24.492-54.013-54.454-54.013
	C502.882,475.854,477.951,499.472,477.951,529.867z M755.258,467.987l-10.727,22.737c-16.613-10.06-33.238-14.216-44.826-14.216
	c-15.086,0-24.922,5.689-24.922,15.965c0,33.458,82.656,15.53,82.438,70.638c0,27.333-24.053,44.172-57.73,44.172
	c-24.062,0-46.795-9.835-62.545-24.271l11.148-22.309c15.746,14.437,35.438,22.309,51.83,22.309
	c17.939,0,28.658-6.778,28.658-18.592c0-34.112-82.682-15.081-82.682-69.539c0-26.239,22.529-42.644,55.783-42.644
	C721.574,452.237,741.041,458.575,755.258,467.987z M797.246,606.415v-153.09h25.801v153.09H797.246z M977,467.987l-10.727,22.737
	c-16.613-10.06-33.232-14.216-44.82-14.216c-15.092,0-24.922,5.689-24.922,15.965c0,33.458,82.656,15.53,82.436,70.638
	c0,27.333-24.057,44.172-57.734,44.172c-24.057,0-46.789-9.835-62.545-24.271l11.154-22.309
	c15.74,14.437,35.438,22.309,51.826,22.309c17.932,0,28.658-6.778,28.658-18.592c0-34.112-82.672-15.081-82.672-69.539
	c0-26.239,22.523-42.644,55.771-42.644C943.326,452.237,962.789,458.575,977,467.987z M659.619,143.536l-10.908,10.918
	c8.789,13.625,11.365,31.04,5.465,47.481c-10.076,28.066-40.994,42.665-69.051,32.594c-3.963-1.413-7.658-3.256-11.055-5.438
	l-35.149,35.139l-30.951-30.951c-14.138,9.459-32.406,12.354-49.643,6.166c-28.873-10.354-43.869-42.142-33.526-70.998
	c1.581-4.402,3.669-8.464,6.156-12.181l-13.19-13.19l-2.549,4.166c-13.829,22.576-21.167,48.522-21.23,75.04
	c-0.146,79.703,64.566,144.662,144.264,144.813h0.282c79.537,0,144.375-64.718,144.525-144.253
	c0.053-26.522-7.182-52.506-20.895-75.129L659.619,143.536z M447.288,172.603c-3.811,4.946-6.103,11.133-6.103,17.859
	c0,16.205,13.128,29.333,29.333,29.333c6.731,0,12.908-2.293,17.859-6.104L447.288,172.603z M591.871,211.284
	c4.691,3.167,10.322,5.009,16.41,5.009c16.189,0,29.328-13.133,29.328-29.333c0-6.077-1.848-11.72-5.01-16.404L591.871,211.284z
	 M539.151,242.313L419.871,122.588l4.648-4.937c29.663-31.511,69.8-48.862,113.004-48.862h0.293
	c43.66,0.084,85.498,18.702,114.816,51.087l4.48,4.937L539.151,242.313z M439.463,122.426l99.725,100.097l98.48-98.092
	c-26.355-26.465-62.379-41.571-99.883-41.645h-0.262C500.48,82.786,465.928,96.804,439.463,122.426z M407.638,319.399l-14.044-0.921
	c-59.373-3.858-141.275-18.482-194.273-66.226c-32.469-29.244-38.682-57.038-38.928-58.211l-1.791-8.412h216.069l-1.073,7.899
	c-0.984,7.302-1.487,14.682-1.507,21.927c-0.058,32.944,9.537,64.832,27.752,92.224L407.638,319.399z M669.371,319.399l7.795-11.72
	c18.115-27.219,27.73-58.892,27.789-91.585c0.01-7.517-0.492-15.106-1.486-22.565l-1.068-7.899h216.043l-1.785,8.412
	c-0.246,1.173-6.465,28.967-38.938,58.211c-52.998,47.743-134.922,62.367-194.305,66.226L669.371,319.399z"/>
</svg>
