<?xml version="1.0" encoding="utf-8"?>
<!-- Generator: Adobe Illustrator 19.2.0, SVG Export Plug-In . SVG Version: 6.00 Build 0)  -->
<svg version="1.1" id="Capa_1" xmlns="http://www.w3.org/2000/svg" xmlns:xlink="http://www.w3.org/1999/xlink" x="0px" y="0px"
	 viewBox="0 0 571.6 98.3" style="enable-background:new 0 0 571.6 98.3;" xml:space="preserve">
<style type="text/css">
	.st0{clip-path:url(#SVGID_2_);}
	.st1{clip-path:url(#SVGID_4_);fill:#000000;}
	.st2{clip-path:url(#SVGID_6_);}
	.st3{clip-path:url(#SVGID_8_);fill:#000000;}
	.st4{clip-path:url(#SVGID_10_);}
	.st5{clip-path:url(#SVGID_12_);fill:#000000;}
	.st6{clip-path:url(#SVGID_14_);}
	.st7{clip-path:url(#SVGID_16_);fill:#000000;}
	.st8{clip-path:url(#SVGID_18_);}
	.st9{clip-path:url(#SVGID_20_);fill:#000000;}
	.st10{clip-path:url(#SVGID_22_);}
	.st11{clip-path:url(#SVGID_24_);fill:#000000;}
</style>
<g>
	<defs>
		<path id="SVGID_1_" d="M291.8,52v-0.2c0-21.2,16.2-39.1,39.1-39.1c13.2,0,21.3,3.7,29.1,10.3L351.6,33c-5.8-5-11.6-8.1-21.2-8.1
			c-14,0-24.6,12.2-24.6,26.7v0.2c0,15.6,10.3,27,25.8,27c7.1,0,13.6-2.3,18.3-5.7V58.9v-3l12.9-8.6v31.8
			c-7.5,6.4-18.2,11.8-31.6,11.8C307.4,90.9,291.8,74,291.8,52"/>
	</defs>
	<use xlink:href="#SVGID_1_"  style="overflow:visible;fill-rule:evenodd;clip-rule:evenodd;fill:#000000;"/>
	<clipPath id="SVGID_2_">
		<use xlink:href="#SVGID_1_"  style="overflow:visible;"/>
	</clipPath>
	<g class="st0">
		<defs>
			<rect id="SVGID_3_" x="-655.9" y="-523.9" width="1528.9" height="1080.4"/>
		</defs>
		<use xlink:href="#SVGID_3_"  style="overflow:visible;fill:#000000;"/>
		<clipPath id="SVGID_4_">
			<use xlink:href="#SVGID_3_"  style="overflow:visible;"/>
		</clipPath>
		<rect x="282.7" y="3.6" class="st1" width="89" height="96.4"/>
	</g>
</g>
<g>
	<defs>
		<polygon id="SVGID_5_" points="43.8,15.2 10.5,91.4 24.1,91.4 31.9,73.2 36.8,61.4 49.8,31.1 62.9,61.4 67.7,73.2 75.4,91.4
			89.5,91.4 56.2,15.2 		"/>
	</defs>
	<use xlink:href="#SVGID_5_"  style="overflow:visible;fill-rule:evenodd;clip-rule:evenodd;fill:#000000;"/>
	<clipPath id="SVGID_6_">
		<use xlink:href="#SVGID_5_"  style="overflow:visible;"/>
	</clipPath>
	<g class="st2">
		<defs>
			<rect id="SVGID_7_" x="-655.9" y="-523.9" width="1528.9" height="1080.4"/>
		</defs>
		<use xlink:href="#SVGID_7_"  style="overflow:visible;fill:#000000;"/>
		<clipPath id="SVGID_8_">
			<use xlink:href="#SVGID_7_"  style="overflow:visible;"/>
		</clipPath>
		<rect x="1.4" y="6.2" class="st3" width="97.2" height="94.4"/>
	</g>
</g>
<g>
	<defs>
		<polygon id="SVGID_9_" points="230.4,13.7 197,89.9 210.7,89.9 218.5,71.6 223.3,59.8 236.3,29.6 249.4,59.8 254.3,71.6 262,89.9
			276,89.9 242.7,13.7 		"/>
	</defs>
	<use xlink:href="#SVGID_9_"  style="overflow:visible;fill-rule:evenodd;clip-rule:evenodd;fill:#000000;"/>
	<clipPath id="SVGID_10_">
		<use xlink:href="#SVGID_9_"  style="overflow:visible;"/>
	</clipPath>
	<g class="st4">
		<defs>
			<rect id="SVGID_11_" x="-655.9" y="-523.9" width="1528.9" height="1080.4"/>
		</defs>
		<use xlink:href="#SVGID_11_"  style="overflow:visible;fill:#000000;"/>
		<clipPath id="SVGID_12_">
			<use xlink:href="#SVGID_11_"  style="overflow:visible;"/>
		</clipPath>
		<rect x="188" y="4.6" class="st5" width="97.2" height="94.4"/>
	</g>
</g>
<g>
	<defs>
		<path id="SVGID_13_" d="M427.2,12.9c-23.3,0-39.7,17.8-39.7,39.1v0.2c0,21.3,16.2,38.9,39.5,38.9c23.3,0,39.7-17.8,39.7-39.1v-0.2
			C466.7,30.5,450.4,12.9,427.2,12.9z M452.7,52.3c0,14.7-10.5,26.7-25.5,26.7c-15,0-25.8-12.2-25.8-26.9v-0.2
			c0-14.7,10.5-26.7,25.5-26.7c15,0,25.8,12.2,25.8,26.9V52.3z"/>
	</defs>
	<use xlink:href="#SVGID_13_"  style="overflow:visible;fill-rule:evenodd;clip-rule:evenodd;fill:#000000;"/>
	<clipPath id="SVGID_14_">
		<use xlink:href="#SVGID_13_"  style="overflow:visible;"/>
	</clipPath>
	<g class="st6">
		<defs>
			<rect id="SVGID_15_" x="-655.9" y="-523.9" width="1528.9" height="1080.4"/>
		</defs>
		<use xlink:href="#SVGID_15_"  style="overflow:visible;fill:#000000;"/>
		<clipPath id="SVGID_16_">
			<use xlink:href="#SVGID_15_"  style="overflow:visible;"/>
		</clipPath>
		<rect x="378.4" y="3.8" class="st7" width="97.4" height="96.4"/>
	</g>
</g>
<g>
	<defs>
		<polygon id="SVGID_17_" points="546.5,14.2 546.5,66.5 505.9,14.2 493.6,14.2 493.6,89.9 506.7,89.9 506.7,36 548.5,89.9
			559.6,89.9 559.6,14.2 		"/>
	</defs>
	<use xlink:href="#SVGID_17_"  style="overflow:visible;fill-rule:evenodd;clip-rule:evenodd;fill:#000000;"/>
	<clipPath id="SVGID_18_">
		<use xlink:href="#SVGID_17_"  style="overflow:visible;"/>
	</clipPath>
	<g class="st8">
		<defs>
			<rect id="SVGID_19_" x="-655.9" y="-523.9" width="1528.9" height="1080.4"/>
		</defs>
		<use xlink:href="#SVGID_19_"  style="overflow:visible;fill:#000000;"/>
		<clipPath id="SVGID_20_">
			<use xlink:href="#SVGID_19_"  style="overflow:visible;"/>
		</clipPath>
		<rect x="484.5" y="5.1" class="st9" width="84.2" height="93.8"/>
	</g>
</g>
<g>
	<defs>
		<path id="SVGID_21_" d="M158.3,61.2c10.6-3,18.1-10.5,18.1-22.9v-0.2c0-6.6-2.3-12.2-6.3-16.3c-4.9-4.8-12.3-7.6-21.9-7.6h-33.8
			v75.7h9.6h3.7v-8.4v-18v-2.3V26.3h19.4c1.7,0,3.2,0.2,4.6,0.4c7,1.2,11.1,5.4,11.1,12.1v0.2c0,7.7-6.1,12.6-15.6,12.6h-7.4
			l-5.2,11.8h1h8.8l18.6,26.4h15.7L158.3,61.2z"/>
	</defs>
	<use xlink:href="#SVGID_21_"  style="overflow:visible;fill-rule:evenodd;clip-rule:evenodd;fill:#000000;"/>
	<clipPath id="SVGID_22_">
		<use xlink:href="#SVGID_21_"  style="overflow:visible;"/>
	</clipPath>
	<g class="st10">
		<defs>
			<rect id="SVGID_23_" x="-655.9" y="-523.9" width="1528.9" height="1080.4"/>
		</defs>
		<use xlink:href="#SVGID_23_"  style="overflow:visible;fill:#000000;"/>
		<clipPath id="SVGID_24_">
			<use xlink:href="#SVGID_23_"  style="overflow:visible;"/>
		</clipPath>
		<rect x="105.4" y="5.1" class="st11" width="82.4" height="93.8"/>
	</g>
</g>
</svg>
